<?xml version="1.0" standalone="no"?>
<!DOCTYPE svg PUBLIC "-//W3C//DTD SVG 20010904//EN"
 "http://www.w3.org/TR/2001/REC-SVG-20010904/DTD/svg10.dtd">
<svg version="1.0" xmlns="http://www.w3.org/2000/svg"
 width="512.000000pt" height="512.000000pt" viewBox="0 0 512.000000 512.000000"
 preserveAspectRatio="xMidYMid meet">

<g transform="translate(0.000000,512.000000) scale(0.100000,-0.100000)"
fill="#000000" stroke="none">
<path d="M1786 4944 c-394 -71 -727 -367 -846 -752 -191 -617 195 -1263 831
-1392 344 -70 705 35 962 279 224 214 338 481 338 791 0 305 -103 553 -320
771 -169 168 -350 263 -586 305 -100 17 -275 17 -379 -2z m377 -210 c333 -63
597 -322 684 -670 23 -94 23 -294 0 -388 -111 -447 -507 -730 -956 -685 -384
40 -699 327 -777 709 -20 101 -15 300 11 395 21 74 82 208 126 272 52 76 158
181 237 235 202 137 422 180 675 132z"/>
<path d="M3509 2462 c-189 -104 -377 -207 -418 -230 l-74 -41 -61 44 c-332
236 -827 343 -1256 271 -697 -116 -1242 -629 -1411 -1326 -28 -114 -37 -181
-49 -333 -11 -147 -7 -177 28 -212 l25 -25 1457 0 1457 0 105 -103 c57 -57
137 -126 179 -154 83 -56 268 -152 342 -177 57 -19 81 -13 256 70 145 69 259
145 361 241 239 225 383 512 419 836 6 53 11 248 11 434 0 311 -2 340 -19 368
-14 24 -111 80 -483 278 -308 164 -474 247 -494 247 -20 0 -145 -63 -375 -188z
m775 -242 l386 -205 0 -320 c0 -350 -9 -438 -56 -581 -103 -311 -331 -559
-637 -693 l-98 -43 -112 55 c-287 141 -488 368 -587 664 -50 151 -60 249 -60
603 l1 315 377 207 c207 114 382 206 389 205 6 -1 185 -94 397 -207z m-1964
67 c195 -46 339 -106 493 -206 l95 -61 5 -363 c5 -308 8 -376 25 -458 24 -112
63 -231 104 -313 16 -32 28 -59 26 -61 -2 -1 -593 -6 -1315 -10 l-1311 -7 5
64 c3 35 16 118 29 184 119 607 547 1071 1124 1220 139 35 221 43 420 39 164
-3 212 -8 300 -28z"/>
<path d="M4208 1678 c-29 -23 -137 -111 -241 -195 -103 -84 -191 -153 -196
-153 -5 0 -47 45 -93 100 -93 112 -127 135 -178 120 -18 -5 -41 -17 -51 -26
-24 -21 -35 -79 -21 -109 14 -30 243 -298 274 -319 12 -9 39 -16 60 -16 33 0
65 23 328 236 160 130 295 246 302 257 19 36 11 88 -19 119 -42 44 -96 40
-165 -14z"/>
</g>
</svg>
