<?xml version="1.0" standalone="no"?>
<!DOCTYPE svg PUBLIC "-//W3C//DTD SVG 20010904//EN"
 "http://www.w3.org/TR/2001/REC-SVG-20010904/DTD/svg10.dtd">
<svg version="1.0" xmlns="http://www.w3.org/2000/svg"
 width="512.000000pt" height="512.000000pt" viewBox="0 0 512.000000 512.000000"
 preserveAspectRatio="xMidYMid meet">

<g transform="translate(0.000000,512.000000) scale(0.100000,-0.100000)"
fill="#000000" stroke="none">
<path d="M340 4469 c-160 -31 -299 -173 -330 -339 -14 -72 -14 -2218 0 -2291
33 -173 182 -314 362 -339 35 -6 591 -10 1254 -10 l1191 0 23 -62 c215 -600
859 -922 1460 -732 98 30 227 93 253 122 62 68 18 172 -73 172 -19 0 -64 -14
-100 -31 -178 -85 -344 -116 -530 -98 -404 40 -734 327 -836 729 -15 59 -19
108 -18 235 1 144 4 169 28 249 98 323 339 564 661 662 81 24 106 27 250 28
127 1 176 -3 235 -18 335 -85 590 -325 692 -650 37 -120 57 -341 39 -430 -17
-80 -83 -148 -157 -164 -106 -23 -199 24 -245 123 -16 35 -19 68 -19 283 0
267 -4 288 -60 317 -36 19 -57 19 -94 0 -27 -14 -30 -13 -65 14 -152 119 -380
138 -562 45 -59 -29 -158 -120 -198 -181 -189 -285 -51 -680 277 -794 171 -60
379 -18 516 104 l50 44 51 -51 c239 -239 652 -110 715 224 5 29 10 100 10 159
0 388 -170 733 -473 962 -144 109 -370 202 -544 224 l-53 7 0 572 c0 536 -1
576 -19 628 -50 145 -163 250 -306 284 -51 11 -318 14 -1700 13 -902 -1 -1660
-5 -1685 -10z m3288 -208 c-5 -15 -1508 -1245 -1536 -1258 -36 -16 -101 -16
-132 0 -26 14 -1462 1187 -1515 1238 l-30 29 1609 0 c938 0 1606 -4 1604 -9z
m-2594 -781 c433 -355 806 -655 830 -667 93 -47 219 -49 318 -5 24 10 400 312
836 670 437 359 797 652 802 652 17 0 20 -68 20 -596 l0 -551 -77 -13 c-409
-65 -764 -354 -913 -741 -51 -134 -86 -358 -73 -468 l6 -51 -1216 2 -1215 3
-44 30 c-23 17 -54 51 -68 75 l-25 45 0 1115 c0 613 3 1123 8 1133 4 10 11 17
16 15 5 -2 363 -293 795 -648z m3048 -1378 c55 -27 122 -91 148 -142 43 -84
43 -205 1 -289 -80 -156 -276 -220 -431 -141 -51 26 -115 93 -142 148 -33 68
-33 207 1 272 42 81 115 143 201 171 49 16 172 5 222 -19z"/>
</g>
</svg>
