<?xml version="1.0" standalone="no"?>
<!DOCTYPE svg PUBLIC "-//W3C//DTD SVG 20010904//EN"
 "http://www.w3.org/TR/2001/REC-SVG-20010904/DTD/svg10.dtd">
<svg version="1.0" xmlns="http://www.w3.org/2000/svg"
 width="512.000000pt" height="512.000000pt" viewBox="0 0 512.000000 512.000000"
 preserveAspectRatio="xMidYMid meet">

<g transform="translate(0.000000,512.000000) scale(0.100000,-0.100000)"
fill="#000000" stroke="none">
<path d="M1135 4759 c-488 -67 -911 -415 -1065 -877 -51 -155 -65 -241 -65
-422 0 -286 64 -496 222 -734 61 -91 178 -213 1197 -1239 l1130 -1138 416 416
417 417 73 -48 c155 -100 329 -153 530 -161 202 -8 353 24 531 113 580 289
775 1035 411 1572 l-41 60 49 82 c63 105 122 257 151 390 34 150 34 390 0 540
-56 255 -176 474 -356 655 -186 186 -420 310 -683 362 -109 21 -355 23 -462 4
-208 -38 -402 -122 -571 -248 -35 -26 -153 -135 -261 -242 l-198 -194 -208
205 c-313 307 -485 411 -787 473 -95 20 -332 28 -430 14z m413 -319 c46 -11
115 -34 155 -51 157 -66 204 -104 540 -438 l317 -315 318 315 c337 336 385
374 542 439 136 56 228 74 390 74 116 0 163 -5 233 -22 181 -45 331 -128 465
-256 138 -133 230 -288 280 -476 33 -125 37 -341 8 -465 -21 -91 -65 -209
-102 -273 l-25 -42 -44 30 c-68 47 -200 107 -297 134 -253 72 -515 50 -755
-64 -271 -129 -464 -344 -562 -624 -110 -315 -63 -681 123 -958 l36 -53 -307
-307 c-170 -170 -311 -307 -314 -306 -21 9 -2010 2025 -2050 2078 -67 89 -135
230 -166 347 -23 86 -26 117 -26 253 0 135 3 167 25 250 107 399 425 685 836
750 87 14 285 4 380 -20z m2672 -1627 c449 -108 706 -586 551 -1024 -83 -235
-271 -412 -521 -491 -65 -20 -95 -23 -220 -23 -136 1 -151 3 -235 32 -218 75
-371 209 -466 408 -49 102 -69 177 -76 290 -25 406 264 761 672 824 76 12 211
5 295 -16z"/>
<path d="M3880 2330 l0 -130 -125 0 -125 0 0 -150 0 -150 125 0 124 0 3 -127
3 -128 148 -3 147 -3 0 131 0 130 130 0 130 0 0 150 0 149 -127 3 -128 3 -3
128 -3 127 -149 0 -150 0 0 -130z"/>
</g>
</svg>
