<?xml version="1.0" standalone="no"?>
<!DOCTYPE svg PUBLIC "-//W3C//DTD SVG 20010904//EN"
 "http://www.w3.org/TR/2001/REC-SVG-20010904/DTD/svg10.dtd">
<svg version="1.0" xmlns="http://www.w3.org/2000/svg"
 width="512.000000pt" height="512.000000pt" viewBox="0 0 512.000000 512.000000"
 preserveAspectRatio="xMidYMid meet">

<g transform="translate(0.000000,512.000000) scale(0.100000,-0.100000)"
fill="#000000" stroke="none">
<path d="M2392 5108 c-521 -65 -974 -447 -1126 -950 -55 -179 -57 -208 -63
-730 l-5 -487 -54 -11 c-185 -39 -348 -196 -410 -395 -18 -57 -19 -113 -19
-1060 l0 -1000 22 -70 c31 -98 88 -188 160 -254 77 -72 140 -106 239 -131 75
-19 115 -20 1424 -20 1309 0 1349 1 1424 20 99 25 162 59 239 131 72 66 129
156 160 254 l22 70 0 995 c0 935 -1 999 -18 1060 -56 198 -223 361 -411 400
l-54 11 -5 482 c-4 396 -7 498 -21 572 -111 583 -568 1028 -1141 1110 -111 16
-251 17 -363 3z m263 -208 c61 -6 144 -20 186 -30 344 -88 634 -341 768 -672
82 -201 91 -285 91 -830 l0 -428 -119 0 -120 0 -3 483 c-4 545 -5 552 -88 726
-188 392 -613 596 -1022 492 -324 -83 -556 -313 -660 -652 -21 -72 -22 -90
-26 -561 l-3 -488 -120 0 -120 0 4 488 c3 421 6 497 21 562 77 327 257 579
539 756 125 78 311 138 476 154 42 4 78 8 81 9 3 0 55 -4 115 -9z m50 -465
c203 -43 381 -188 472 -383 60 -128 63 -158 63 -659 l0 -453 -681 0 -680 0 3
483 3 482 27 73 c15 40 42 98 59 129 41 72 145 182 217 230 149 98 342 135
517 98z m1295 -1746 c100 -47 170 -140 190 -252 7 -35 10 -391 8 -1003 l-3
-949 -29 -63 c-37 -79 -114 -152 -191 -181 -55 -21 -65 -21 -1410 -21 -1345 0
-1355 0 -1410 21 -77 29 -154 102 -191 181 l-29 63 -3 959 c-3 1059 -4 1032
60 1127 40 60 87 97 157 126 l56 23 1370 -3 1370 -2 55 -26z"/>
<path d="M2467 1810 c-267 -67 -385 -398 -220 -614 41 -54 132 -122 176 -131
l27 -7 0 -159 c0 -184 8 -216 63 -242 43 -21 51 -21 92 -1 56 26 65 60 66 241
l0 158 61 29 c80 38 137 96 179 182 32 64 34 75 33 164 0 84 -4 103 -30 160
-62 134 -190 221 -333 226 -42 2 -93 -1 -114 -6z m183 -232 c59 -41 75 -72 75
-148 0 -74 -14 -103 -69 -144 -40 -30 -153 -30 -193 0 -51 38 -73 81 -73 144
0 66 24 110 79 147 47 32 135 32 181 1z"/>
</g>
</svg>
