<?xml version="1.0" standalone="no"?>
<!DOCTYPE svg PUBLIC "-//W3C//DTD SVG 20010904//EN"
 "http://www.w3.org/TR/2001/REC-SVG-20010904/DTD/svg10.dtd">
<svg version="1.0" xmlns="http://www.w3.org/2000/svg"
 width="512.000000pt" height="512.000000pt" viewBox="0 0 512.000000 512.000000"
 preserveAspectRatio="xMidYMid meet">

<g transform="translate(0.000000,512.000000) scale(0.100000,-0.100000)"
fill="#000000" stroke="none">
<path d="M1194 5045 c-73 -16 -185 -70 -243 -119 -139 -116 -210 -277 -211
-473 l0 -83 -103 0 c-196 0 -330 -53 -457 -180 -87 -86 -141 -184 -165 -296
-22 -103 -22 -3255 0 -3358 46 -217 223 -400 440 -456 77 -20 112 -20 2105
-20 1993 0 2028 0 2105 20 217 56 394 239 440 456 22 103 22 3255 0 3358 -24
112 -78 210 -165 296 -127 127 -261 180 -457 180 l-103 0 0 83 c-1 247 -115
439 -323 544 -120 60 -240 76 -372 48 -172 -36 -316 -149 -394 -306 -48 -98
-61 -158 -61 -280 l0 -89 -670 0 -670 0 0 89 c0 122 -13 182 -61 280 -116 235
-379 362 -635 306z m224 -247 c81 -20 163 -95 205 -185 21 -45 22 -63 25 -315
l3 -268 -336 0 -337 0 4 263 c3 259 3 263 29 318 34 73 85 128 149 163 81 44
153 51 258 24z m2528 -19 c73 -34 126 -90 163 -168 26 -55 26 -59 29 -318 l4
-263 -337 0 -336 0 3 268 c3 264 3 268 29 322 47 100 141 172 246 189 71 12
131 3 199 -30z m-3206 -770 c0 -134 11 -174 58 -206 25 -17 63 -18 482 -21
250 -2 475 0 499 3 32 5 54 16 78 40 l33 33 0 136 0 136 670 0 670 0 0 -136 0
-136 33 -33 c24 -24 46 -35 78 -40 24 -3 249 -5 499 -3 419 3 457 4 482 21 47
32 58 72 58 206 l0 121 83 0 c105 0 185 -21 252 -66 62 -40 96 -82 133 -162
l27 -57 0 -340 0 -340 -2315 0 -2315 0 0 340 0 340 27 57 c37 80 71 122 133
163 69 45 139 64 248 64 l87 1 0 -121z m4140 -2217 c0 -772 -3 -1147 -11
-1187 -19 -105 -70 -184 -154 -239 -105 -71 45 -66 -2155 -66 -2200 0 -2050
-5 -2155 66 -84 55 -135 134 -154 239 -8 40 -11 415 -11 1187 l0 1128 2320 0
2320 0 0 -1128z"/>
<path d="M3384 2326 c-17 -8 -247 -220 -510 -471 -263 -252 -494 -472 -512
-489 l-32 -30 -258 255 c-141 141 -268 264 -282 273 -13 9 -44 16 -67 16 -35
0 -48 -6 -78 -35 -47 -47 -49 -103 -6 -161 16 -21 163 -172 327 -335 310 -307
320 -315 387 -302 35 7 40 11 617 561 563 538 567 542 576 588 17 91 -79 167
-162 130z"/>
</g>
</svg>
